<?xml version="1.0" encoding="UTF-8"?>
<svg xmlns="http://www.w3.org/2000/svg" xmlns:xlink="http://www.w3.org/1999/xlink" viewBox="0 0 100 100" width="100px" height="100px">
<g id="surface29011486">
<path style=" stroke:none;fill-rule:nonzero;fill:rgb(50.196081%,87.058824%,91.764706%);fill-opacity:1;" d="M 50 70.832031 C 23.125 70.832031 2.082031 61.667969 2.082031 50 C 2.082031 38.332031 23.125 29.167969 50 29.167969 C 76.875 29.167969 97.917969 38.332031 97.917969 50 C 97.917969 61.667969 76.875 70.832031 50 70.832031 Z M 50 33.332031 C 23.75 33.332031 6.25 41.875 6.25 50 C 6.25 58.125 23.75 66.667969 50 66.667969 C 76.25 66.667969 93.75 58.125 93.75 50 C 93.75 41.875 76.25 33.332031 50 33.332031 Z M 50 33.332031 "/>
<path style=" stroke:none;fill-rule:nonzero;fill:rgb(50.196081%,87.058824%,91.764706%);fill-opacity:1;" d="M 31.457031 92.917969 C 29.375 92.917969 27.707031 92.5 26.042969 91.457031 C 15.832031 85.625 18.542969 62.917969 31.875 39.582031 C 38.125 28.75 45.832031 19.582031 53.332031 13.75 C 61.457031 7.5 68.75 5.625 73.75 8.542969 C 78.957031 11.457031 80.832031 18.75 79.582031 28.957031 C 78.332031 38.542969 74.167969 49.792969 67.917969 60.625 C 61.667969 71.457031 53.957031 80.625 46.457031 86.457031 C 41.042969 90.625 35.832031 92.917969 31.457031 92.917969 Z M 68.542969 11.25 C 65.207031 11.25 60.832031 13.125 56.042969 16.875 C 48.957031 22.5 41.667969 31.25 35.625 41.667969 C 22.5 64.375 21.25 83.957031 28.125 87.917969 C 31.667969 90 37.5 88.125 43.957031 83.125 C 51.042969 77.5 58.332031 68.75 64.375 58.332031 C 70.417969 47.917969 74.375 37.292969 75.625 28.332031 C 76.667969 20 75.417969 14.167969 71.875 12.082031 C 70.832031 11.667969 69.792969 11.25 68.542969 11.25 Z M 68.542969 11.25 "/>
<path style=" stroke:none;fill-rule:nonzero;fill:rgb(50.196081%,87.058824%,91.764706%);fill-opacity:1;" d="M 68.75 92.917969 C 58.332031 92.917969 43.332031 80.207031 32.082031 60.417969 C 18.542969 37.082031 15.832031 14.375 26.042969 8.542969 C 36.25 2.707031 54.582031 16.25 68.125 39.582031 C 74.375 50.417969 78.542969 61.667969 79.792969 71.25 C 81.25 81.457031 79.167969 88.542969 73.957031 91.667969 C 72.292969 92.5 70.625 92.917969 68.75 92.917969 Z M 28.125 12.082031 C 21.25 16.042969 22.5 35.625 35.625 58.332031 C 48.75 81.042969 65 91.875 71.875 87.917969 C 75.417969 85.832031 76.667969 80 75.625 71.667969 C 74.375 62.707031 70.417969 52.082031 64.375 41.667969 C 51.25 18.957031 35 8.125 28.125 12.082031 Z M 28.125 12.082031 "/>
<path style=" stroke:none;fill-rule:nonzero;fill:rgb(50.196081%,87.058824%,91.764706%);fill-opacity:1;" d="M 58.332031 50 C 58.332031 54.601562 54.601562 58.332031 50 58.332031 C 45.398438 58.332031 41.667969 54.601562 41.667969 50 C 41.667969 45.398438 45.398438 41.667969 50 41.667969 C 54.601562 41.667969 58.332031 45.398438 58.332031 50 Z M 58.332031 50 "/>
</g>
</svg>
